#!OML:ASF E:\pregnant2\Project 1\Capture day 1\Session 1\pregnant2.ASF
:FULLY-SPECIFIED
:DEGREES
608
root 6.98532 17.3775 22.4521 30.6182 -8.92139 1.44337
lowerback -20.9938 -1.58222 -0.626029
upperback -16.3534 -2.10725 1.98979
thorax -6.14917 -0.976671 2.19098
lowerneck -12.1111 -7.73494 -10.9836
upperneck 34.4167 -10.6753 4.89017
head 14.8591 -5.50001 2.11105
rclavicle -1.39149e-014 -6.36111e-015
rhumerus -49.7643 12.8436 -91.1417
rradius 29.7582
rwrist 14.7671
rhand -14.0722 -12.7335
rfingers 7.12502
rthumb 12.0595 317.634
lclavicle -1.39149e-014 -6.36111e-015
lhumerus -46.7571 3.32763 84.1969
lradius 26.0694
lwrist -9.52963
lhand -10.426 24.7404
lfingers 7.12502
lthumb 15.5734 54.1333
rfemur -43.8867 10.8544 11.705
rtibia 26.506
rfoot -12.5349 -17.0911
rtoes 0.747076
lfemur -35.6922 -13.5561 -12.5335
ltibia 18.0057
lfoot -4.77393 29.4537
ltoes -13.9165
609
root 6.97574 17.3769 22.4612 30.617 -8.91686 1.39635
lowerback -20.9236 -1.56807 -0.557735
upperback -16.3114 -2.09814 2.01866
thorax -6.13588 -0.976593 2.18568
lowerneck -12.2352 -7.32185 -10.3658
upperneck 34.5666 -10.0289 4.41073
head 14.8064 -5.20349 1.92611
rclavicle -3.04141e-014 1.66979e-014
rhumerus -49.6486 12.6383 -90.7608
rradius 29.8137
rwrist 14.7791
rhand -14.0517 -12.7216
rfingers 7.12502
rthumb 12.0793 317.647
lclavicle -3.04141e-014 1.66979e-014
lhumerus -46.5573 3.31063 84.1514
lradius 26.0783
lwrist -9.47142
lhand -10.4547 24.7594
lfingers 7.12502
lthumb 15.5457 54.1546
rfemur -43.8219 10.8431 11.8237
rtibia 26.4758
rfoot -12.5469 -17.0375
rtoes 0.751416
lfemur -35.6416 -13.55 -12.4574
ltibia 18.0184
lfoot -4.8427 29.4805
ltoes -13.9287
610
root 6.96579 17.3766 22.4708 30.5894 -8.91742 1.35445
lowerback -20.842 -1.54253 -0.487592
upperback -16.2561 -2.07439 2.03052
thorax -6.11407 -0.970186 2.16302
lowerneck -12.3293 -6.90488 -9.72215
upperneck 34.6827 -9.38079 3.91608
head 14.7381 -4.90518 1.72987
rclavicle 1.87852e-014 1.66979e-014
rhumerus -49.5183 12.3593 -90.3463
rradius 29.8692
rwrist 14.7518
rhand -14.0097 -12.7288
rfingers 7.12502
rthumb 12.1198 317.642
lclavicle 1.87852e-014 1.66979e-014
lhumerus -46.3558 3.23121 84.1399
lradius 26.1013
lwrist -9.35247
lhand -10.5133 24.7671
lfingers 7.12502
lthumb 15.4893 54.1666
rfemur -43.7264 10.843 11.9385
rtibia 26.4428
rfoot -12.5615 -16.9901
rtoes 0.746155
lfemur -35.5494 -13.549 -12.3937
ltibia 18.0127
lfoot -4.90682 29.5103
ltoes -13.9373
611
root 6.95562 17.3764 22.4811 30.5361 -8.92425 1.3222
lowerback -20.7483 -1.50233 -0.413711
upperback -16.1871 -2.03207 2.01923
thorax -6.08384 -0.955929 2.11589
lowerneck -12.406 -6.49053 -9.05784
upperneck 34.7723 -8.74023 3.41002
head 14.6624 -4.60874 1.52272
rclavicle -1.78906e-015 6.36111e-015
rhumerus -49.3749 12.0067 -89.904
rradius 29.9289
rwrist 14.6729
rhand -13.9418 -12.7518
rfingers 7.12502
rthumb 12.1852 317.623
lclavicle -1.78906e-015 6.36111e-015
lhumerus -46.1494 3.07017 84.167
lradius 26.1405
lwrist -9.15797
lhand -10.5886 24.7744
lfingers 7.12502
lthumb 15.4168 54.1795
rfemur -43.604 10.8478 12.0464
rtibia 26.4124
rfoot -12.5776 -16.9461
rtoes 0.712843
lfemur -35.417 -13.5548 -12.3475
ltibia 17.9851
lfoot -4.96044 29.5431
ltoes -13.9443
612
root 6.94529 17.3764 22.492 30.4544 -8.93161 1.30228
lowerback -20.638 -1.44876 -0.333934
upperback -16.1036 -1.97308 1.98406
thorax -6.0464 -0.934973 2.04207
lowerneck -12.4817 -6.08293 -8.379
upperneck 34.8415 -8.11083 2.8932
head 14.587 -4.31609 1.30496
rclavicle 1.2921e-015 -7.95139e-015
rhumerus -49.2233 11.5929 -89.4425
rradius 30.0023
rwrist 14.5209
rhand -13.8483 -12.7912
rfingers 7.12502
rthumb 12.2753 317.589
lclavicle 1.2921e-015 -7.95139e-015
lhumerus -45.9351 2.82828 84.231
lradius 26.2018
lwrist -8.88394
lhand -10.6643 24.7941
lfingers 7.12502
lthumb 15.3439 54.2048
rfemur -43.4519 10.8516 12.1486
rtibia 26.3898
rfoot -12.6013 -16.9045
rtoes 0.657164
lfemur -35.2414 -13.5698 -12.3216
ltibia 17.9356
lfoot -5.00703 29.5744
ltoes -13.9481
613
root 6.93469 17.3763 22.5035 30.3575 -8.93781 1.29373
lowerback -20.5167 -1.38688 -0.250219
upperback -16.0141 -1.9037 1.93239
thorax -6.00855 -0.909867 1.94985
lowerneck -12.5543 -5.6834 -7.69796
upperneck 34.8893 -7.49166 2.36572
head 14.5118 -4.02858 1.07919
rclavicle -2.9122e-014 3.33958e-014
rhumerus -49.0808 11.1504 -88.9797
rradius 30.0938
rwrist 14.2837
rhand -13.7435 -12.8608
rfingers 7.12502
rthumb 12.3764 317.526
lclavicle -2.9122e-014 3.33958e-014
lhumerus -45.7183 2.52331 84.325
lradius 26.2797
lwrist -8.54035
lhand -10.7208 24.8373
lfingers 7.12502
lthumb 15.2894 54.2522
rfemur -43.286 10.8438 12.2497
rtibia 26.3784
rfoot -12.6242 -16.8592
rtoes 0.55629
lfemur -35.0416 -13.5927 -12.3105
ltibia 17.8703
lfoot -5.04297 29.6045
ltoes -13.959
614
root 6.92372 17.3762 22.5154 30.2643 -8.94237 1.29552
lowerback -20.3979 -1.32007 -0.165578
upperback -15.9256 -1.82792 1.87008
thorax -5.97109 -0.882052 1.84651
lowerneck -12.6326 -5.29321 -7.03056
upperneck 34.918 -6.88255 1.83537
head 14.4408 -3.74712 0.851305
rclavicle -8.94531e-016 1.27222e-014
rhumerus -48.9565 10.7036 -88.5278
rradius 30.2074
rwrist 13.9637
rhand -13.6374 -12.9542
rfingers 7.12502
rthumb 12.4788 317.438
lclavicle -8.94531e-016 1.27222e-014
lhumerus -45.5047 2.17392 84.4428
lradius 26.3731
lwrist -8.15049
lhand -10.764 24.889
lfingers 7.12502
lthumb 15.2479 54.307
rfemur -43.1295 10.8289 12.3421
rtibia 26.3798
rfoot -12.6503 -16.8142
rtoes 0.439511
lfemur -34.8448 -13.6219 -12.3068
ltibia 17.7986
lfoot -5.07274 29.6352
ltoes -13.9712
615
root 6.91227 17.3758 22.5276 30.192 -8.94225 1.30292
lowerback -20.2956 -1.25431 -0.080068
upperback -15.8445 -1.75362 1.80646
thorax -5.93392 -0.855067 1.74088
lowerneck -12.7146 -4.90825 -6.38445
upperneck 34.9193 -6.276 1.30441
head 14.3696 -3.46927 0.625198
rclavicle 2.38542e-015 2.38542e-015
rhumerus -48.8633 10.2843 -88.1023
rradius 30.348
rwrist 13.5746
rhand -13.5528 -13.0673
rfingers 7.12502
rthumb 12.5602 317.33
lclavicle 2.38542e-015 2.38542e-015
lhumerus -45.2996 1.81299 84.5687
lradius 26.4823
lwrist -7.76335
lhand -10.774 24.9404
lfingers 7.12502
lthumb 15.2382 54.3591
rfemur -43.002 10.8098 12.4257
rtibia 26.3956
rfoot -12.6814 -16.7729
rtoes 0.31476
lfemur -34.6775 -13.6555 -12.2994
ltibia 17.7356
lfoot -5.10202 29.669
ltoes -13.9883
616
root 6.90032 17.3751 22.5402 30.1521 -8.93468 1.30936
lowerback -20.217 -1.18898 0.0114623
upperback -15.7755 -1.68075 1.74422
thorax -5.89908 -0.829205 1.63296
lowerneck -12.7998 -4.5309 -5.76789
upperneck 34.8875 -5.67577 0.779482
head 14.2959 -3.19688 0.404733
rclavicle -1.13307e-014 3.02153e-014
rhumerus -48.803 9.90158 -87.7079
rradius 30.51
rwrist 13.1475
rhand -13.4867 -13.1965
rfingers 7.12502
rthumb 12.624 317.205
lclavicle -1.13307e-014 3.02153e-014
lhumerus -45.1072 1.45309 84.6937
lradius 26.6071
lwrist -7.41726
lhand -10.7347 24.9827
lfingers 7.12502
lthumb 15.2761 54.3986
rfemur -42.9142 10.7907 12.5028
rtibia 26.4239
rfoot -12.7198 -16.7388
rtoes 0.204723
lfemur -34.5567 -13.6819 -12.282
ltibia 17.6922
lfoot -5.13473 29.6971
ltoes -14.0139
617
root 6.88781 17.3738 22.553 30.1544 -8.91713 1.31118
lowerback -20.173 -1.12405 0.110964
upperback -15.7208 -1.60968 1.68425
thorax -5.86338 -0.804807 1.5224
lowerneck -12.8865 -4.16288 -5.18376
upperneck 34.8124 -5.08533 0.264926
head 14.2145 -2.93119 0.192103
rclavicle -3.3694e-014 -1.59028e-015
rhumerus -48.7784 9.55889 -87.3473
rradius 30.6939
rwrist 12.7068
rhand -13.4419 -13.3159
rfingers 7.12502
rthumb 12.6672 317.088
lclavicle -3.3694e-014 -1.59028e-015
lhumerus -44.9324 1.09252 84.8191
lradius 26.752
lwrist -7.12061
lhand -10.6655 24.996
lfingers 7.12502
lthumb 15.3427 54.4068
rfemur -42.8761 10.7736 12.5744
rtibia 26.4617
rfoot -12.7638 -16.7123
rtoes 0.119491
lfemur -34.4957 -13.654 -12.2688
ltibia 17.6783
lfoot -5.17751 29.6735
ltoes -14.0659
618
root 6.87486 17.3721 22.5661 30.1988 -8.88498 1.30262
lowerback -20.1607 -1.05953 0.224126
upperback -15.6815 -1.54124 1.6289
thorax -5.82967 -0.782659 1.40857
lowerneck -12.9722 -3.80606 -4.6375
upperneck 34.6881 -4.50792 -0.235083
head 14.122 -2.67374 -0.0100889
rclavicle -9.83984e-015 3.18055e-015
rhumerus -48.7909 9.26222 -87.0196
rradius 30.9023
rwrist 12.2742
rhand -13.4005 -13.4314
rfingers 7.12502
rthumb 12.7071 316.975
lclavicle -9.83984e-015 3.18055e-015
lhumerus -44.7785 0.742068 84.9385
lradius 26.9171
lwrist -6.89487
lhand -10.5602 24.9718
lfingers 7.12502
lthumb 15.4442 54.3748
rfemur -42.8828 10.7557 12.6493
rtibia 26.5047
rfoot -12.8148 -16.6884
rtoes 0.0813675
lfemur -34.499 -13.6226 -12.2278
ltibia 17.6984
lfoot -5.2307 29.6498
ltoes -14.126
619
root 6.86155 17.3701 22.5795 30.2796 -8.83564 1.28043
lowerback -20.1736 -0.992738 0.354301
upperback -15.6572 -1.47238 1.57734
thorax -5.80087 -0.761504 1.28926
lowerneck -13.0505 -3.46452 -4.13751
upperneck 34.5097 -3.95097 -0.71235
head 14.0148 -2.42767 -0.197704
rclavicle 5.41688e-014 -3.97569e-014
rhumerus -48.8424 9.01114 -86.7256
rradius 31.1351
rwrist 11.8634
rhand -13.3601 -13.5437
rfingers 7.12502
rthumb 12.7461 316.865
lclavicle 5.41688e-014 -3.97569e-014
lhumerus -44.6478 0.400805 85.0527
lradius 27.1043
lwrist -6.73687
lhand -10.4301 24.8944
lfingers 7.12502
lthumb 15.5694 54.2877
rfemur -42.9264 10.7311 12.7377
rtibia 26.5502
rfoot -12.8638 -16.6636
rtoes 0.072428
lfemur -34.56 -13.5782 -12.1612
ltibia 17.752
lfoot -5.29011 29.6146
ltoes -14.2048
